<?xml version="1.0" encoding="UTF-8" standalone="no"?>
<svg
   viewBox="0 0 256 256"
   width="500"
   height="500"
   version="1.1"
   id="svg3"
   xml:space="preserve"
   xmlns="http://www.w3.org/2000/svg"
   xmlns:svg="http://www.w3.org/2000/svg"><defs
     id="defs3" /><g
     fill="#111111"
     fill-rule="nonzero"
     stroke="none"
     stroke-width="1"
     stroke-linecap="butt"
     stroke-linejoin="miter"
     stroke-miterlimit="10"
     stroke-dasharray="none"
     stroke-dashoffset="0"
     font-family="none"
     font-weight="none"
     font-size="none"
     text-anchor="none"
     style="mix-blend-mode:normal"
     id="g1"
     transform="matrix(1.4887257,0,0,1.4887257,-62.556892,-62.556892)"><path
       d="M 0,256 V 0 h 256 v 256 z"
       id="bgRectangle" /></g><g
     fill="#156aa6"
     fill-rule="nonzero"
     stroke="none"
     stroke-width="1"
     stroke-linecap="butt"
     stroke-linejoin="miter"
     stroke-miterlimit="10"
     stroke-dasharray="none"
     stroke-dashoffset="0"
     font-family="none"
     font-weight="none"
     font-size="none"
     text-anchor="none"
     style="display:inline;mix-blend-mode:normal"
     id="g3"
     transform="matrix(0.68066062,0,0,0.68066062,40.679088,40.714987)"><g
       transform="scale(2.56)"
       id="g2"><path
         d="M 52.93945,7.91016 C 52.47397,7.91701 52.01998,7.93497 51.57617,7.96485 30.62275,9.37558 11.73056,28.23044 9.13867,50.19141 c -1.14421,9.68808 1.36531,21.5337 15.03516,33.35352 0.62414,0.58458 1.26638,1.15311 1.94922,1.68945 0.4234,0.33256 0.85666,0.64694 1.29297,0.95313 0.02389,0.01834 0.04636,0.03635 0.07031,0.05469 0.03237,0.02551 0.06629,0.04899 0.10156,0.07031 0.0015,10e-4 0.0024,0.0029 0.0039,0.0039 C 43.0123,96.97064 66.12925,91.35262 80.13477,73.5215 94.49547,55.23818 94.1043,30.69804 79.01758,18.52541 78.98447,18.48761 78.94856,18.45235 78.91016,18.41994 69.27248,10.38631 59.92161,7.80736 52.93946,7.91017 Z m 5.70118,5.91211 c 6.86852,-0.15105 13.45856,1.7971 18.8418,6.02539 14.35531,11.27543 14.98555,34.73127 1.07813,52.4375 C 65.05993,89.47348 43.05083,94.63472 28.64259,84.60743 27.5271,83.75146 26.48892,82.89835 25.50001,82.04688 12.98637,70.26292 13.00477,48.12562 26.28126,31.22266 34.9734,20.15627 47.1931,14.07402 58.64064,13.82227 Z m -0.6543,4.54687 c -10.23131,0.24503 -21.08309,5.71811 -28.74023,15.4668 -0.0127,0.01616 -0.02444,0.03265 -0.03711,0.04883 -0.01094,0.0139 -0.02227,0.0271 -0.0332,0.04102 -1.47217,1.8743 -2.75744,3.82887 -3.85156,5.83398 -8.06005,14.62974 -6.42861,31.86863 4.9707,40.82227 C 43.27967,90.78095 63.70757,86.12525 75.95899,70.52735 88.21042,54.92945 87.8949,33.98017 74.91016,23.78126 70.04088,19.95667 64.12512,18.22213 57.98633,18.36915 Z m -1.24024,2.70899 c 5.50167,-0.14308 10.77085,1.39822 15.06055,4.76758 11.4392,8.98496 11.89538,27.81148 0.67578,42.0957 C 61.26283,82.22563 42.86302,86.24278 31.42383,77.25782 21.07986,69.1331 19.71837,52.961 27.84766,39.37696 c 0.88392,-1.46827 1.87329,-2.90752 2.9707,-4.30469 0.32725,-0.41664 0.66331,-0.82087 1.00195,-1.2207 6.91989,-8.09863 16.21481,-12.5469 24.92578,-12.77344 z m -3.96093,3.57421 c -0.55152,0.0086 -0.99193,0.46214 -0.98437,1.01367 v 4.73438 c -0.0051,0.36064 0.18438,0.69608 0.49587,0.87789 0.3115,0.18181 0.69676,0.18181 1.00825,0 0.3115,-0.18181 0.50097,-0.51725 0.49587,-0.87789 v -4.73437 c 0.0037,-0.2703 -0.10218,-0.53059 -0.29351,-0.72155 -0.19133,-0.19097 -0.45182,-0.29634 -0.72212,-0.29212 z m 28.68359,0.4336 c 0.372,0.543 0.79883,1.10641 1.29883,1.69141 -0.404,-0.585 -0.83083,-1.14841 -1.29883,-1.69141 z m -20.54492,3.52929 c -0.9435,0.06031 -2.03172,0.77648 -2.57422,2.22461 -1.34935,3.58594 -4.54482,11.90834 -6.38672,16.71875 -0.8903,0.30486 -1.75964,0.89265 -2.48828,1.82031 -1.85924,2.36709 -1.41598,5.12253 0.26563,6.44336 0.77429,0.60817 1.78475,0.87222 2.82813,0.76758 l 3.62109,7 c 1.7,2.94 4.77055,0.50016 3.56055,-1.83984 l -3.71484,-7.16602 c 0.0087,-0.01089 0.01871,-0.01831 0.02734,-0.0293 1.79008,-2.27904 1.4333,-4.90339 -0.0957,-6.27539 1.83852,-4.79263 5.06517,-13.21437 6.41406,-16.79883 0.73125,-1.935 -0.24396,-2.94278 -1.45703,-2.86523 z m 9.91015,0.32032 c -0.29444,0.01301 -0.56815,0.15522 -0.74805,0.38867 l -2.94727,3.70313 c -0.3441,0.43255 -0.2724,1.06215 0.16016,1.40625 0.43255,0.3441 1.06215,0.2724 1.40625,-0.16016 l 2.94727,-3.70508 c 0.25004,-0.30528 0.2972,-0.72904 0.12039,-1.08182 -0.17681,-0.35278 -0.54453,-0.56861 -0.93875,-0.55099 z m -36.64843,7.48633 c -0.42505,0.0061 -0.79982,0.28019 -0.93437,0.68343 -0.13456,0.40324 4.9e-4,0.84747 0.33672,1.10759 l 3.48633,2.77344 c 0.27795,0.23823 0.66384,0.30556 1.00605,0.17554 0.3422,-0.13002 0.58602,-0.43662 0.63565,-0.79931 0.04963,-0.36269 -0.10287,-0.72352 -0.39756,-0.94069 l -3.48633,-2.77344 c -0.1821,-0.14927 -0.41104,-0.2295 -0.64648,-0.22656 z m 43.46484,9.56054 c -0.05715,0.0023 -0.114,0.0095 -0.16992,0.02148 l -4.57031,0.88281 c -0.36057,0.05742 -0.6612,0.30678 -0.78428,0.65052 -0.12308,0.34375 -0.04905,0.72725 0.19313,1.00049 0.24218,0.27324 0.61402,0.39279 0.97006,0.31188 l 4.57227,-0.88281 c 0.51795,-0.09108 0.87688,-0.56775 0.82129,-1.0907 -0.05559,-0.52295 -0.5067,-0.91351 -1.03223,-0.89367 z m -24.20703,3.25781 c 0.42694,0.02968 0.80929,0.20194 1.11914,0.44531 0.82628,0.649 1.28215,1.91039 -0.07227,3.63477 -1.35442,1.72437 -2.68739,1.57869 -3.51367,0.92969 -0.82628,-0.649 -1.28411,-1.91039 0.07031,-3.63477 0.84651,-1.07773 1.68493,-1.42447 2.39648,-1.375 z m -21.8457,6.49024 c -0.05709,0.0017 -0.11394,0.0082 -0.16992,0.01953 l -4.76367,0.91992 c -0.35106,0.06761 -0.63937,0.3174 -0.75629,0.65525 -0.11692,0.33785 -0.04469,0.71241 0.18948,0.98256 0.23417,0.27014 0.59469,0.39481 0.94571,0.32703 l 4.76367,-0.92187 c 0.51129,-0.09699 0.86276,-0.56988 0.8082,-1.08743 -0.05456,-0.51754 -0.4969,-0.90675 -1.01718,-0.895 z m 35.94726,6.89258 c -0.42505,0.0061 -0.79981,0.28019 -0.93437,0.68343 -0.13456,0.40324 4.9e-4,0.84747 0.33672,1.10759 l 2.94727,2.3457 c 0.27902,0.22756 0.65883,0.28757 0.99442,0.15712 0.33559,-0.13045 0.57516,-0.43122 0.62724,-0.78749 0.05208,-0.35627 -0.09136,-0.71303 -0.37557,-0.93408 l -2.94727,-2.3457 c -0.18262,-0.14971 -0.41232,-0.22996 -0.64844,-0.22656 z m -29.51953,6.7832 c -0.29411,0.01253 -0.56777,0.154 -0.74805,0.38672 l -3.4043,4.2793 c -0.22229,0.27981 -0.27841,0.65696 -0.14721,0.98936 0.1312,0.3324 0.42978,0.56955 0.78325,0.62211 0.35347,0.05255 0.70813,-0.08747 0.93036,-0.36733 l 3.40234,-4.27734 c 0.24976,-0.30501 0.29704,-0.72828 0.12074,-1.08088 -0.1763,-0.3526 -0.54329,-0.56874 -0.93715,-0.55193 z m 15.05664,2.74219 c -0.55152,0.0086 -0.99193,0.46214 -0.98437,1.01367 v 4.62109 c -0.0051,0.36064 0.18438,0.69608 0.49587,0.87789 0.3115,0.18181 0.69676,0.18181 1.00825,0 0.3115,-0.18181 0.50097,-0.51725 0.49587,-0.87789 v -4.62109 c 0.0037,-0.2703 -0.10218,-0.53059 -0.29351,-0.72155 -0.19133,-0.19096 -0.45182,-0.29634 -0.72211,-0.29212 z"
         id="path1" /></g></g></svg>
